<svg width="381" height="38" viewBox="0 0 381 38" fill="none" xmlns="http://www.w3.org/2000/svg">
<g clip-path="url(#clip0_28469_148549)">
<path d="M12.471 10.0906L10.6508 13.2747L14.8386 20.6148L16.6588 17.4329L12.4732 10.0906H12.471ZM0 24.9105H0.184658C2.38956 24.8395 4.30648 23.628 5.37925 21.8396L5.41223 21.7908L10.7563 12.4471L12.5435 9.31846L14.6099 5.71057L15.0166 4.99609L24.665 21.8507C25.7685 23.6746 27.7558 24.8928 30.0267 24.9016H30.0376V25.2234L16.1444 25.2234V24.9061H16.2477C17.7271 24.8528 18.912 23.628 18.912 22.1214C18.912 21.6443 18.7933 21.1961 18.5845 20.8034L16.8346 17.748L12.7172 24.9482L12.2775 25.7049L7.90731 18.0586L6.4872 20.5438C6.18164 20.992 6.00357 21.5356 6.00357 22.1214C6.00357 23.5304 7.04117 24.6975 8.38873 24.8817C8.44809 24.895 8.50744 24.9039 8.569 24.9061H8.73387V25.2256H0L0 25.108L0 24.9105Z" fill="#BB2429"/>
<path d="M80.4748 10.1155L72.4224 10.1155H67.529V10.5149C67.529 10.5149 68.3292 10.5304 68.8546 10.5659C69.5207 10.6103 70.0571 11.0874 70.0571 11.7663V15.9822L64.9174 10.1155H59.3887V10.5149C59.3887 10.5149 60.1691 10.5193 60.6483 10.5704C61.3144 10.6392 61.8903 11.0896 61.8903 11.7686V18.6426C61.8903 19.5147 61.1803 20.0783 60.3493 20.1737C59.9778 20.2158 59.3711 20.2269 59.3711 20.2269V20.6308H64.9086V20.2247C64.9086 20.2247 64.3568 20.2358 63.9633 20.1737C63.1258 20.045 62.4092 19.5124 62.4092 18.6404V12.0237L70.578 21.343V11.7619C70.578 11.0829 71.1232 10.6392 71.7915 10.5704C72.0861 10.5393 72.5148 10.526 72.7852 10.5216C73.0006 10.526 73.2688 10.5393 73.4732 10.5659C74.2932 10.6724 74.9373 11.2848 74.9373 12.1147V18.7913C74.9307 19.6789 74.302 20.076 73.5656 20.1825C73.1193 20.2469 72.4136 20.2291 72.4136 20.2291V20.6352H80.455C83.3612 20.6352 85.72 18.2876 85.72 15.3831C85.72 12.4786 83.3722 10.1222 80.4726 10.1133L80.4748 10.1155ZM82.2071 17.4533C82.1895 17.5643 82.1148 17.8505 82.1148 17.8505C81.7235 19.1508 80.521 20.1138 79.0921 20.1138H78.3908C78.1974 20.1138 78.0391 19.9562 78.0391 19.7632V11.0341C78.0413 10.8411 78.1996 10.6347 78.393 10.6347H79.0371C80.488 10.6347 81.7608 11.6044 82.1411 12.969C82.1631 13.0511 82.1807 13.1354 82.1961 13.2197C82.3434 13.9231 82.4225 14.6509 82.4225 15.3986C82.4225 16.1042 82.3412 16.7899 82.2049 17.4555L82.2071 17.4533Z" fill="#1D1D1B"/>
<path d="M105.204 10.1061L97.1513 10.1061V10.5077C97.1513 10.5077 97.8042 10.5055 98.2065 10.5565C99.0265 10.663 99.6706 11.2754 99.6706 12.1053V18.7819C99.6662 19.4941 99.2595 19.8891 98.7187 20.0733C97.9998 19.8891 97.4261 19.5075 97.0985 18.8662L91.6643 9.36719C91.6643 9.36719 88.9208 15.103 87.1292 18.753C86.7291 19.5696 86.0521 20.0355 85.1156 20.182C84.8364 20.2241 84.3945 20.2286 84.3945 20.2286V20.6346H89.6595V20.233C89.6595 20.233 89.0681 20.2242 88.6878 20.1798C88.2174 20.1243 87.3535 19.7648 87.8063 18.6776L88.4702 17.2686H92.9459L93.6318 18.4757C93.7285 18.6887 93.8692 18.8928 93.8692 19.148C93.8692 19.7338 93.3812 20.0977 92.8162 20.182C92.315 20.2574 91.4159 20.2308 91.4159 20.2308V20.6346H100.192V20.6258H105.186C108.092 20.6258 110.451 18.2782 110.451 15.3737C110.451 12.4692 108.103 10.1127 105.204 10.1039V10.1061ZM88.6746 16.7405L90.4992 12.9662L92.6558 16.7405H88.6746ZM106.936 17.4439C106.918 17.5548 106.844 17.8411 106.844 17.8411C106.452 19.1413 105.25 20.1043 103.823 20.1043H103.122C102.928 20.1043 102.77 19.9468 102.77 19.7537L102.775 11.0247C102.775 10.8316 102.931 10.6253 103.126 10.6253H103.77C105.221 10.6253 106.494 11.5949 106.874 12.9595C106.896 13.0416 106.914 13.1237 106.932 13.2103C107.079 13.9137 107.158 14.6415 107.158 15.3892C107.158 16.0948 107.077 16.7805 106.94 17.4461L106.936 17.4439Z" fill="#1D1D1B"/>
<path d="M54.5946 9.68527C54.3132 9.6542 54.0296 9.63867 53.7394 9.63867C53.4492 9.63867 53.1679 9.6542 52.8887 9.68527C49.9957 9.93378 47.7227 12.3834 47.7227 15.3678C47.7227 18.1902 49.7935 20.5178 52.3545 20.9793C52.8029 21.0614 53.2668 21.1036 53.7394 21.1036C54.2121 21.1036 54.6759 21.0614 55.1243 20.9793C57.6876 20.5334 59.754 18.1902 59.754 15.3678C59.754 12.3834 57.4853 9.936 54.5946 9.68527ZM55.575 19.0445C55.4409 19.3063 55.276 19.6014 55.1046 19.8388C54.788 20.2737 54.3088 20.5755 53.7394 20.5755C53.1701 20.5755 52.7216 20.2826 52.4028 19.8788C52.2116 19.6369 52.0423 19.3218 51.8994 19.0445C51.3257 17.9461 51.0025 16.6947 51.0025 15.3678C51.0025 14.0409 51.3411 12.7429 51.8928 11.7C52.0423 11.416 52.1698 11.1764 52.4204 10.8369C52.7194 10.4308 53.1986 10.1668 53.7394 10.1668C54.2802 10.1668 54.799 10.4885 55.0936 10.8901C55.2694 11.1275 55.4365 11.4226 55.5728 11.6867C56.1466 12.7873 56.4719 14.0387 56.4719 15.3678C56.4719 16.6969 56.1488 17.9461 55.575 19.0445Z" fill="#1D1D1B"/>
<path d="M144.001 20.2178C144.001 20.2178 143.361 20.2267 142.888 20.1712C142.187 20.0891 141.482 19.6697 141.482 18.9907V11.7306C141.499 11.0694 142.06 10.6566 142.71 10.5657C143.187 10.4991 143.996 10.5191 143.996 10.5191V10.1152L135.847 10.1152V10.5191C135.847 10.5191 136.604 10.5191 137.094 10.5701C137.764 10.6367 138.351 11.0982 138.351 11.7683C138.351 11.7683 138.353 18.9397 138.353 18.9907C138.353 19.6697 137.808 20.1068 137.157 20.1712C137.037 20.1823 136.894 20.1912 136.749 20.1978C135.918 20.1024 135.276 19.774 134.966 18.8731C134.429 17.3111 134.933 15.2941 131.585 15.2697C132.471 15.1343 133.407 14.8792 133.919 14.4531C134.438 14.0271 134.704 13.6677 134.684 12.6004C134.665 11.4821 133.68 10.7964 133.176 10.5368C132.653 10.2683 131.596 10.1219 130.679 10.1219H123.172V10.5257C123.172 10.5257 124.401 10.5324 124.733 10.5768C125.403 10.6677 125.68 11.2912 125.68 11.8526V18.7866C125.685 19.7407 125.256 20.1068 124.57 20.1778C124.027 20.2355 123.172 20.2311 123.172 20.2289V20.6305H131.286V20.2244C130.679 20.2244 130.532 20.2533 129.934 20.1778C129.294 20.098 128.802 19.6919 128.797 18.9575L128.808 15.5515H129.63C132.693 15.5604 129.991 20.6305 133.996 20.6305H137.342V20.6172H144.001V20.2133V20.2178ZM130.666 14.8592C130.297 15.0567 129.681 15.0766 128.826 15.0722V10.9407C128.826 10.7986 128.94 10.67 129.092 10.6655H129.56C130.061 10.6655 130.464 10.7587 130.767 10.9407C131.334 11.2779 131.618 11.9547 131.618 12.88C131.618 13.8429 131.301 14.5108 130.668 14.8614L130.666 14.8592Z" fill="#1D1D1B"/>
<path d="M45.8312 18.7204C45.8312 18.7204 44.732 12.3189 44.6573 11.8907C44.5122 11.0608 45.1497 10.6326 45.8048 10.5838C46.2555 10.5505 46.9919 10.535 46.9919 10.535V10.1289L41.5357 10.1289L39.4583 15.8913L37.3919 10.1333H31.7269V10.535C31.7269 10.535 32.4765 10.5283 32.9711 10.566C33.679 10.6193 34.2615 11.1274 34.1538 11.7753C34.0725 12.2746 32.9403 18.7936 32.9403 18.7936C32.8172 19.6324 32.1292 20.0717 31.2718 20.1604C30.8036 20.2093 30.043 20.2204 30.043 20.2204V20.6242H35.9015V20.2248C35.9015 20.2248 35.1892 20.2159 34.6704 20.1604C33.956 20.085 33.3866 19.4926 33.4811 18.8291C33.4943 18.7293 34.6858 11.8796 34.6858 11.8796L38.0712 21.2765L41.4632 11.8752C41.4632 11.8752 42.6349 18.5495 42.6612 18.7315C42.7843 19.5769 42.1666 20.1161 41.4917 20.1782C40.9488 20.2292 40.065 20.2248 40.065 20.2248V20.6331H48.7615V20.2248C48.7615 20.2248 48.0823 20.2248 47.5679 20.1804C46.6951 20.105 45.9499 19.5791 45.8356 18.7204H45.8312Z" fill="#1D1D1B"/>
<path d="M118.333 9.69308C118.051 9.66202 117.768 9.64648 117.478 9.64648C117.188 9.64648 116.906 9.66202 116.627 9.69308C113.734 9.94159 111.461 12.3912 111.461 15.3756C111.461 18.1958 113.53 20.5256 116.091 20.9872C116.541 21.067 117.003 21.1092 117.476 21.1092C117.948 21.1092 118.412 21.067 118.86 20.9872C121.424 20.5412 123.49 18.198 123.49 15.3756C123.49 12.3935 121.221 9.94381 118.328 9.69308H118.333ZM119.313 19.0523C119.179 19.3141 119.014 19.6092 118.843 19.8467C118.526 20.2816 118.047 20.5833 117.478 20.5833C116.908 20.5833 116.46 20.2904 116.141 19.8866C115.95 19.6447 115.781 19.3297 115.638 19.0523C115.064 17.954 114.741 16.7025 114.741 15.3756C114.741 14.0487 115.079 12.7507 115.631 11.7078C115.781 11.4238 115.908 11.1842 116.159 10.8447C116.458 10.4386 116.937 10.1746 117.478 10.1746C118.018 10.1746 118.537 10.4963 118.834 10.8979C119.01 11.1354 119.175 11.4305 119.313 11.6945C119.887 12.7951 120.212 14.0465 120.212 15.3756C120.212 16.7047 119.889 17.954 119.315 19.0523H119.313Z" fill="#1D1D1B"/>
<path d="M38.2908 31.0053C38.2336 31.3115 38.0556 32.1059 37.8643 32.8292H32.0586V32.6584C32.7774 32.5674 32.8786 32.3988 32.8786 31.367V26.3568C32.8786 25.325 32.7774 25.1541 32.0586 25.0654V24.8945H37.561L37.706 26.7074H37.5368C37.4356 26.2547 37.1653 25.7555 36.8971 25.5291C36.6267 25.2917 36.2002 25.1896 35.4484 25.1896H34.9318C34.5273 25.1896 34.4591 25.2584 34.4591 25.6201V28.6688H35.4022C36.5256 28.6688 36.7058 28.5779 36.8949 27.8523H37.0641V29.8693H36.8949C36.6926 29.1437 36.5365 29.0527 35.4022 29.0527H34.4591V31.2627C34.4591 32.4187 34.5713 32.5319 35.7166 32.5319C36.6816 32.5319 37.0751 32.4298 37.3785 32.1014C37.6027 31.864 37.9061 31.3981 38.0863 31.0009H38.2886L38.2908 31.0053Z" fill="#BB2429"/>
<path d="M47.1074 28.602C47.1074 31.2314 45.0849 32.8312 41.7831 32.8312H38.9648V32.6603C39.6837 32.5694 39.7848 32.4007 39.7848 31.3689V26.3587C39.7848 25.3269 39.6837 25.1561 38.9648 25.0673V24.8965H42.4689C45.4454 24.8965 47.1074 26.2234 47.1074 28.6042V28.602ZM45.2762 28.7507C45.2762 26.483 44.1528 25.1916 42.1656 25.1916C41.4687 25.1916 41.3676 25.3048 41.3676 26.0991V31.1892C41.3676 32.2321 41.5808 32.5161 42.3788 32.5161C44.1199 32.5161 45.2762 31.0206 45.2762 28.7529V28.7507Z" fill="#BB2429"/>
<path d="M55.7292 25.0651C55.1906 25.1561 54.9312 25.3935 54.8411 25.8706C54.7839 26.2212 54.74 26.9134 54.74 27.6057V29.1589C54.74 31.7883 53.7068 33.002 51.4711 33.002C49.3607 33.002 48.4045 31.9148 48.4045 29.5339V26.5873C48.4045 25.3624 48.2923 25.1583 47.5625 25.0673V24.8965H50.8424V25.0673C50.1015 25.1583 49.9894 25.3624 49.9894 26.5873V29.352C49.9894 31.3468 50.7413 32.3896 52.1789 32.3896C53.6166 32.3896 54.3685 31.3135 54.3685 29.1146V27.608C54.3685 26.9268 54.3245 26.2367 54.2453 25.8506C54.1552 25.3869 53.8628 25.1472 53.2693 25.0673V24.8965H55.7292V25.0673V25.0651Z" fill="#BB2429"/>
<path d="M63.6015 30.9943C63.4322 31.6067 63.142 32.3655 62.9508 32.6828C62.6474 32.7516 61.5702 32.989 60.7151 32.989C57.4132 32.989 56.0547 30.8234 56.0547 28.9307C56.0547 26.4833 57.9079 24.7148 60.9965 24.7148C61.9396 24.7148 62.8826 24.9412 63.197 25.01C63.2761 25.6224 63.3553 26.1438 63.4432 26.6985H63.219C62.8255 25.5425 61.7131 25.01 60.7942 25.01C58.8619 25.01 57.8859 26.8117 57.8859 28.6933C57.8859 31.0275 59.1103 32.6939 60.8734 32.6939C61.8956 32.6939 62.7705 32.0149 63.3553 30.9943H63.6015Z" fill="#BB2429"/>
<path d="M71.1907 32.661V32.8319H68.1021V32.661C68.7528 32.5035 68.7418 32.2639 68.5396 31.6759L67.9108 29.9407H65.5191C65.2377 30.7106 64.9915 31.3807 64.9234 31.6071C64.6991 32.275 64.7211 32.4791 65.5301 32.661V32.8319H63.3516V32.661C63.9473 32.5368 64.1386 32.2417 64.543 31.2565L67.1942 24.875H67.6668L70.0586 31.1766C70.4521 32.2306 70.6543 32.5257 71.1929 32.661H71.1907ZM67.7768 29.5657L66.7655 26.7766H66.7216C66.5193 27.298 66.0599 28.4873 65.6664 29.5657H67.7768Z" fill="#BB2429"/>
<path d="M77.582 26.6852H77.3907C77.2676 26.2658 77.0544 25.7444 76.817 25.518C76.6367 25.3472 76.3223 25.1896 75.2672 25.1896H74.8187V31.367C74.8187 32.421 74.999 32.5696 75.7508 32.6584V32.8292H72.3038V32.6584C73.0667 32.5674 73.2359 32.4321 73.2359 31.367V25.1896H72.7875C71.7323 25.1896 71.4179 25.3494 71.2377 25.518C71.0244 25.7333 70.8222 26.1637 70.6639 26.6852H70.4727C70.5166 26.0949 70.5738 25.4382 70.6067 24.8945H77.4457C77.4787 25.4382 77.5358 26.0972 77.5798 26.6852H77.582Z" fill="#BB2429"/>
<path d="M81.3204 32.6603V32.8312H78.0977V32.6603C78.8165 32.5694 78.9176 32.4007 78.9176 31.3689V26.3587C78.9176 25.3269 78.8165 25.1561 78.0977 25.0673V24.8965H81.3204V25.0673C80.6015 25.1583 80.5004 25.3269 80.5004 26.3587V31.3689C80.5004 32.3896 80.6125 32.5716 81.3204 32.6603Z" fill="#BB2429"/>
<path d="M90.6529 28.749C90.6529 31.1743 88.8327 32.9893 86.419 32.9893C84.0052 32.9893 82.207 31.2785 82.207 28.9532C82.207 26.6278 84.0272 24.7129 86.441 24.7129C88.8547 24.7129 90.6529 26.4236 90.6529 28.749ZM88.8217 29.0663C88.8217 26.6855 87.7995 25.008 86.3289 25.008C84.9373 25.008 84.0382 26.437 84.0382 28.6359C84.0382 31.0167 85.0604 32.6942 86.5311 32.6942C87.9226 32.6942 88.8217 31.2652 88.8217 29.0663Z" fill="#BB2429"/>
<path d="M99.3183 25.0654C98.7687 25.1342 98.5994 25.325 98.5313 25.9485C98.4873 26.4477 98.4412 27.4551 98.4412 28.194V33.0001H98.1268L92.5343 26.6519H92.5013V29.532C92.5013 30.3818 92.5475 31.3004 92.5805 31.6754C92.6486 32.3788 92.8838 32.594 93.6137 32.6606V32.8315H91.2109V32.6606C91.8067 32.5474 92.0199 32.3766 92.0859 31.6066C92.1408 30.8922 92.165 30.3374 92.165 29.532V26.8804C92.165 26.0639 92.1078 25.7799 91.8836 25.5092C91.7143 25.2939 91.4901 25.1586 91.2109 25.1009V24.8967H92.996L98.0499 30.3707H98.1048V28.194C98.1048 27.3442 98.0938 26.8893 98.0257 25.984C97.9817 25.3494 97.7333 25.1453 96.9485 25.0654V24.8945H99.3183V25.0654Z" fill="#BB2429"/>
</g>
<g clip-path="url(#clip1_28469_148549)">
<path d="M178.543 32.3373C178.534 31.9865 178.52 31.6329 178.5 31.2793C178.745 31.2849 178.988 31.2933 179.227 31.3045C179.467 31.3156 179.71 31.3212 179.955 31.3212C180.358 31.3212 180.717 31.317 181.03 31.3086C181.344 31.3003 181.555 31.2905 181.664 31.2793C181.642 31.3659 181.632 31.4805 181.632 31.6231C181.632 31.7097 181.635 31.7782 181.64 31.8271C181.646 31.8761 181.654 31.9306 181.665 31.9907C181.507 31.9795 181.334 31.9683 181.146 31.9585C180.959 31.9487 180.776 31.9362 180.598 31.9264C180.42 31.9152 180.261 31.9068 180.12 31.9026C179.978 31.897 179.878 31.8942 179.818 31.8942C179.795 32.1933 179.784 32.491 179.781 32.7845C179.778 33.078 179.777 33.3757 179.777 33.6747C180.131 33.6691 180.451 33.6608 180.738 33.6496C181.025 33.6384 181.323 33.6244 181.633 33.609C181.616 33.7013 181.605 33.7726 181.601 33.8215C181.595 33.8704 181.593 33.9221 181.593 33.9766C181.593 34.0199 181.597 34.0647 181.605 34.1108C181.614 34.1569 181.623 34.224 181.635 34.3106C181.014 34.2617 180.394 34.2366 179.778 34.2366C179.778 34.4113 179.778 34.5859 179.774 34.7592C179.771 34.9339 179.77 35.1086 179.77 35.2819C179.77 35.6355 179.778 35.9765 179.795 36.3036C180.106 36.3036 180.416 36.2952 180.728 36.2784C181.039 36.2616 181.352 36.2351 181.668 36.1973C181.657 36.2574 181.649 36.3119 181.643 36.3609C181.637 36.4098 181.635 36.4783 181.635 36.5649C181.635 36.6516 181.637 36.72 181.643 36.7689C181.649 36.8179 181.657 36.8584 181.668 36.8919C181.521 36.8863 181.339 36.8822 181.124 36.8794C180.909 36.8766 180.613 36.8752 180.237 36.8752H178.941C178.818 36.8752 178.725 36.8752 178.662 36.8794C178.599 36.8822 178.546 36.8863 178.503 36.8919C178.522 36.5537 178.536 36.2099 178.546 35.8577C178.556 35.5069 178.56 35.1044 178.56 34.653V33.542C178.56 33.0891 178.556 32.688 178.546 32.3373H178.543Z" fill="#1D1D1B"/>
<path d="M185.518 32.3373C185.507 31.9865 185.49 31.6329 185.469 31.2793C185.561 31.2905 185.662 31.3003 185.771 31.3086C185.88 31.317 186.003 31.3212 186.139 31.3212C186.319 31.3212 186.521 31.3142 186.744 31.3003C186.968 31.2863 187.259 31.2793 187.62 31.2793C188.089 31.2793 188.515 31.3212 188.9 31.4065C189.285 31.4917 189.616 31.6343 189.893 31.8355C190.171 32.0368 190.387 32.3079 190.539 32.6489C190.692 32.9899 190.769 33.419 190.769 33.9361C190.769 34.3889 190.693 34.797 190.543 35.1617C190.394 35.5265 190.189 35.8382 189.929 36.0967C189.671 36.3553 189.37 36.5537 189.03 36.6893C188.689 36.8249 188.325 36.8933 187.938 36.8933C187.529 36.8933 187.179 36.8905 186.891 36.8849C186.602 36.8794 186.351 36.8766 186.139 36.8766H185.771C185.662 36.8766 185.561 36.8822 185.469 36.8933C185.491 36.5551 185.507 36.2113 185.518 35.8591C185.529 35.5083 185.534 35.1058 185.534 34.6544V33.5434C185.534 33.0905 185.529 32.6894 185.518 32.3387V32.3373ZM186.744 35.2498V35.7403C186.744 35.8983 186.744 36.0422 186.749 36.1736C186.751 36.305 186.753 36.3888 186.753 36.4265C186.834 36.4321 186.933 36.4377 187.047 36.4433C187.161 36.4489 187.302 36.4517 187.472 36.4517C188.087 36.4517 188.575 36.2421 188.936 35.8228C189.296 35.4035 189.476 34.769 189.476 33.9193C189.476 33.5811 189.431 33.2792 189.342 33.0123C189.252 32.7453 189.125 32.5175 188.961 32.3303C188.798 32.143 188.602 31.9976 188.373 31.897C188.143 31.7964 187.887 31.7461 187.603 31.7461C187.407 31.7461 187.248 31.7503 187.125 31.7587C187.002 31.767 186.879 31.7768 186.753 31.7866C186.753 31.8243 186.751 31.9096 186.749 32.0396C186.746 32.1709 186.744 32.3177 186.744 32.4812V35.2512V35.2498Z" fill="#1D1D1B"/>
<path d="M196.22 36.8891C195.918 36.8151 195.655 36.6935 195.431 36.5216C195.207 36.3497 195.031 36.1289 194.904 35.8591C194.775 35.5894 194.712 35.261 194.712 34.8752C194.712 34.6572 194.712 34.463 194.716 34.2911C194.719 34.1192 194.72 33.9598 194.72 33.8131C194.72 33.6663 194.72 33.5238 194.725 33.3882C194.727 33.2527 194.729 33.1101 194.729 32.9634C194.729 32.5217 194.726 32.1654 194.72 31.8928C194.715 31.6203 194.707 31.4163 194.695 31.2793C194.804 31.2905 194.916 31.3003 195.031 31.3086C195.146 31.317 195.258 31.3212 195.367 31.3212C195.476 31.3212 195.588 31.317 195.702 31.3086C195.817 31.3003 195.929 31.2905 196.038 31.2793C195.984 31.8076 195.951 32.2995 195.94 32.7537C195.929 33.2079 195.923 33.6705 195.923 34.1387C195.923 34.6349 195.958 35.0346 196.03 35.3392C196.101 35.6439 196.206 35.8801 196.344 36.0464C196.483 36.2127 196.654 36.3231 196.855 36.3776C197.056 36.4321 197.291 36.4587 197.559 36.4587C197.886 36.4587 198.142 36.3776 198.328 36.2141C198.512 36.0506 198.654 35.8326 198.749 35.5601C198.844 35.2875 198.903 34.9759 198.925 34.6251C198.947 34.2743 198.957 33.9067 198.957 33.5266C198.957 33.1464 198.952 32.7761 198.94 32.4029C198.929 32.0298 198.913 31.6552 198.892 31.2793C198.968 31.2905 199.041 31.3003 199.113 31.3086C199.184 31.317 199.248 31.3212 199.308 31.3212C199.38 31.3212 199.447 31.317 199.513 31.3086C199.578 31.3003 199.645 31.2905 199.717 31.2793C199.706 31.3995 199.694 31.5602 199.685 31.7615C199.673 31.9627 199.662 32.1961 199.652 32.4602C199.641 32.7244 199.631 33.0165 199.624 33.3351C199.616 33.6538 199.612 33.9906 199.612 34.3442C199.612 35.2917 199.408 35.9723 198.998 36.3832C198.589 36.7941 197.989 36.9995 197.199 36.9995C196.851 36.9995 196.525 36.9632 196.221 36.8891H196.22Z" fill="#1D1D1B"/>
<path d="M208.181 36.3183C208.149 36.4357 208.127 36.5517 208.115 36.6649C207.673 36.8885 207.118 37.0003 206.447 37.0003C205.973 37.0003 205.549 36.9332 205.175 36.8004C204.802 36.6677 204.486 36.479 204.227 36.2372C203.968 35.9954 203.77 35.7075 203.634 35.3749C203.497 35.0423 203.43 34.6831 203.43 34.296C203.43 33.73 203.518 33.2492 203.695 32.8537C203.873 32.4582 204.109 32.1382 204.407 31.8894C204.704 31.642 205.049 31.4603 205.442 31.3457C205.836 31.2311 206.247 31.1738 206.678 31.1738C206.819 31.1738 206.968 31.185 207.128 31.206C207.286 31.2283 207.438 31.2563 207.585 31.2912C207.732 31.3262 207.873 31.3695 208.006 31.4184C208.139 31.4673 208.253 31.519 208.346 31.5735C208.292 31.7091 208.25 31.8475 208.219 31.9858C208.19 32.1242 208.169 32.2653 208.157 32.4065H208.043C207.836 32.1451 207.623 31.9579 207.405 31.8461C207.187 31.7343 206.931 31.6784 206.636 31.6784C206.417 31.6784 206.198 31.7273 205.977 31.8251C205.756 31.9229 205.556 32.0725 205.375 32.2751C205.195 32.4764 205.049 32.7335 204.938 33.0466C204.826 33.3596 204.77 33.7342 204.77 34.1702C204.77 34.6063 204.827 34.9473 204.942 35.2449C205.056 35.5412 205.205 35.7844 205.388 35.9717C205.571 36.159 205.778 36.2973 206.009 36.384C206.241 36.4706 206.473 36.5153 206.708 36.5153C206.84 36.5153 206.973 36.5 207.108 36.4706C207.244 36.4413 207.378 36.3993 207.51 36.3476C207.641 36.2959 207.764 36.2316 207.882 36.1562C207.999 36.0807 208.101 35.9954 208.188 35.9032L208.295 35.9689C208.251 36.0835 208.213 36.1995 208.18 36.3169L208.181 36.3183Z" fill="#1D1D1B"/>
<path d="M216.373 36.8934C216.241 36.8822 216.118 36.8766 216.001 36.8766H215.305C215.188 36.8766 215.072 36.8822 214.957 36.8934C214.87 36.6265 214.78 36.3539 214.687 36.0758C214.595 35.7977 214.497 35.5196 214.394 35.2429C214.219 35.2373 214.044 35.2331 213.87 35.2303C213.696 35.2275 213.521 35.2261 213.347 35.2261C213.206 35.2261 213.063 35.2261 212.922 35.2303C212.781 35.2331 212.638 35.2373 212.497 35.2429C212.388 35.521 212.287 35.7991 212.195 36.0758C212.102 36.3539 212.017 36.6265 211.942 36.8934C211.876 36.8822 211.811 36.8766 211.75 36.8766H211.361C211.295 36.8766 211.225 36.8822 211.148 36.8934C211.214 36.7522 211.301 36.5552 211.41 36.305C211.519 36.0549 211.639 35.7712 211.769 35.4553C211.901 35.1395 212.041 34.7998 212.19 34.4379C212.34 34.0759 212.49 33.7097 212.641 33.3394C212.791 32.969 212.937 32.6043 213.083 32.2451C213.227 31.8859 213.36 31.5505 213.479 31.2402C213.533 31.2514 213.585 31.2612 213.634 31.2696C213.683 31.278 213.735 31.2822 213.789 31.2822C213.844 31.2822 213.896 31.278 213.945 31.2696C213.993 31.2612 214.045 31.2514 214.1 31.2402C214.275 31.7028 214.461 32.199 214.659 32.7272C214.858 33.2555 215.058 33.774 215.261 34.2841C215.462 34.7943 215.658 35.2764 215.85 35.7348C216.04 36.1918 216.215 36.5789 216.373 36.8948V36.8934ZM213.477 32.8153C213.336 33.1423 213.202 33.4652 213.077 33.7838C212.951 34.1025 212.83 34.4281 212.709 34.7607H214.206C214.086 34.4281 213.967 34.1025 213.851 33.7838C213.733 33.4652 213.609 33.1423 213.479 32.8153H213.477Z" fill="#1D1D1B"/>
<path d="M220.377 32.1788C220.374 32.0474 220.367 31.9524 220.356 31.8923C220.275 31.8923 220.173 31.8951 220.054 31.9007C219.935 31.9063 219.806 31.9132 219.669 31.9216C219.532 31.93 219.394 31.9412 219.252 31.9538C219.111 31.9677 218.98 31.9817 218.859 31.9985C218.871 31.9384 218.88 31.8783 218.889 31.8182C218.897 31.7581 218.901 31.698 218.901 31.6379C218.901 31.5778 218.897 31.5177 218.889 31.4576C218.88 31.3975 218.871 31.3374 218.859 31.2773C219.045 31.2829 219.212 31.2885 219.363 31.2941C219.513 31.2997 219.665 31.3039 219.82 31.3067C219.976 31.3095 220.145 31.3123 220.327 31.3151C220.51 31.3179 220.728 31.3193 220.985 31.3193C221.243 31.3193 221.461 31.3193 221.644 31.3151C221.827 31.3109 221.994 31.3095 222.148 31.3067C222.3 31.3039 222.449 31.2997 222.594 31.2941C222.738 31.2885 222.895 31.2829 223.064 31.2773C223.053 31.3374 223.043 31.3975 223.035 31.4576C223.026 31.5177 223.022 31.5778 223.022 31.6379C223.022 31.698 223.026 31.7581 223.035 31.8182C223.043 31.8783 223.053 31.9384 223.064 31.9985C222.955 31.9817 222.832 31.9677 222.696 31.9538C222.56 31.9398 222.425 31.9286 222.292 31.9216C222.159 31.9146 222.032 31.9063 221.911 31.9007C221.791 31.8951 221.69 31.8923 221.609 31.8923C221.604 31.9202 221.6 31.958 221.597 32.0069C221.594 32.0558 221.593 32.1131 221.593 32.1788V34.6553C221.593 35.1081 221.598 35.5092 221.609 35.86C221.62 36.2108 221.636 36.556 221.658 36.8942C221.566 36.883 221.465 36.8774 221.356 36.8774H220.62C220.511 36.8774 220.411 36.883 220.318 36.8942C220.341 36.556 220.356 36.2122 220.367 35.86C220.378 35.5092 220.384 35.1067 220.384 34.6553V32.612C220.384 32.4541 220.384 32.3101 220.38 32.1788H220.377Z" fill="#1D1D1B"/>
<path d="M226.783 32.3373C226.772 31.9865 226.755 31.6329 226.734 31.2793C226.827 31.2905 226.927 31.3003 227.037 31.3086C227.146 31.317 227.269 31.3212 227.404 31.3212C227.54 31.3212 227.663 31.317 227.772 31.3086C227.881 31.3003 227.982 31.2905 228.074 31.2793C228.052 31.6329 228.037 31.9865 228.025 32.3373C228.014 32.688 228.009 33.0905 228.009 33.542V34.653C228.009 35.1058 228.014 35.5069 228.025 35.8577C228.037 36.2085 228.052 36.5537 228.074 36.8919C227.982 36.8808 227.881 36.8752 227.772 36.8752H227.037C226.927 36.8752 226.827 36.8808 226.734 36.8919C226.757 36.5537 226.772 36.2099 226.783 35.8577C226.795 35.5069 226.8 35.1044 226.8 34.653V33.542C226.8 33.0891 226.795 32.688 226.783 32.3373Z" fill="#1D1D1B"/>
<path d="M232.079 32.9641C232.229 32.6105 232.44 32.3003 232.713 32.0319C232.986 31.765 233.316 31.5554 233.702 31.403C234.088 31.2507 234.52 31.1738 234.994 31.1738C235.431 31.1738 235.836 31.2339 236.213 31.3541C236.589 31.4743 236.916 31.6532 237.194 31.8936C237.473 32.134 237.692 32.4372 237.853 32.8048C238.014 33.1724 238.094 33.6014 238.094 34.092C238.094 34.5 238.016 34.8816 237.86 35.2366C237.705 35.5901 237.49 35.9004 237.214 36.1646C236.938 36.4287 236.61 36.6341 236.228 36.7823C235.846 36.929 235.426 37.0031 234.969 37.0031C234.538 37.0031 234.134 36.95 233.755 36.8438C233.376 36.7376 233.046 36.5657 232.766 36.3295C232.485 36.0919 232.263 35.79 232.1 35.4224C231.937 35.0549 231.855 34.6146 231.855 34.1031C231.855 33.7006 231.931 33.3219 232.081 32.9669L232.079 32.9641ZM236.622 32.9683C236.536 32.6874 236.414 32.4498 236.259 32.2528C236.103 32.0557 235.915 31.9062 235.695 31.7985C235.474 31.6923 235.233 31.6392 234.972 31.6392C234.694 31.6392 234.445 31.7063 234.224 31.8391C234.003 31.9732 233.817 32.1535 233.664 32.3827C233.512 32.6119 233.395 32.8803 233.316 33.1877C233.236 33.4952 233.197 33.8236 233.197 34.173C233.197 34.6091 233.243 34.9766 233.335 35.2757C233.428 35.5748 233.554 35.8166 233.712 35.9982C233.87 36.1813 234.053 36.3127 234.26 36.3951C234.467 36.4762 234.685 36.5181 234.915 36.5181C235.159 36.5181 235.394 36.4664 235.618 36.363C235.842 36.2596 236.036 36.1017 236.203 35.8892C236.369 35.6768 236.502 35.4071 236.604 35.08C236.705 34.753 236.755 34.3659 236.755 33.9201C236.755 33.5665 236.712 33.2492 236.624 32.9683H236.622Z" fill="#1D1D1B"/>
<path d="M241.97 31.9591C241.959 31.7033 241.95 31.4769 241.945 31.2812C242.097 31.3092 242.22 31.3218 242.313 31.3218C242.405 31.3218 242.528 31.3078 242.681 31.2812C243.275 31.9409 243.862 32.5894 244.443 33.2267C245.023 33.864 245.619 34.5124 246.229 35.1721V33.6683C246.229 33.4014 246.229 33.1386 246.225 32.8801C246.222 32.6215 246.219 32.3825 246.217 32.1645C246.214 31.9465 246.208 31.7592 246.2 31.6013C246.191 31.4434 246.182 31.3372 246.17 31.2826C246.323 31.3106 246.446 31.3232 246.538 31.3232C246.631 31.3232 246.754 31.3092 246.906 31.2826C246.878 31.7788 246.857 32.226 246.84 32.6271C246.824 33.0282 246.811 33.4042 246.8 33.7591C246.789 34.1127 246.782 34.4635 246.779 34.8087C246.776 35.1553 246.775 35.5243 246.775 35.9156V36.8967C246.666 36.8855 246.554 36.8799 246.439 36.8799C246.324 36.8799 246.212 36.8855 246.12 36.8967C244.997 35.5886 243.805 34.2734 242.546 32.9499C242.541 33.1079 242.536 33.2658 242.534 33.4237C242.531 33.5817 242.529 33.7424 242.529 33.9059V34.8534C242.529 35.1805 242.529 35.4586 242.534 35.6864C242.536 35.9156 242.541 36.1085 242.546 36.2664C242.552 36.4243 242.557 36.5543 242.563 36.6549C242.569 36.7555 242.574 36.8366 242.58 36.8953C242.514 36.8841 242.448 36.8785 242.384 36.8785H242.197C242.071 36.8785 241.946 36.8841 241.82 36.8953C241.832 36.852 241.845 36.6968 241.861 36.4299C241.878 36.163 241.894 35.8373 241.914 35.453C241.934 35.0687 241.949 34.6522 241.963 34.2022C241.977 33.7522 241.984 33.3217 241.984 32.9066C241.984 32.5307 241.978 32.2148 241.967 31.9591H241.97Z" fill="#1D1D1B"/>
<path d="M246.768 27.1836L206.711 27.1836V27.5749L246.768 27.5749V27.1836Z" fill="#1D1D1B"/>
<path d="M196.385 9.04492H194.203V17.6134C194.203 17.8482 194.217 17.9922 194.22 18.0383C194.291 19.1787 195.226 20.0815 196.385 20.0815V9.04492Z" fill="#1D1D1B"/>
<path d="M196.176 6.09821C196.719 5.6108 196.764 4.77578 196.276 4.23313C195.788 3.69048 194.952 3.6457 194.409 4.1331C193.866 4.62051 193.821 5.45553 194.309 5.99818C194.797 6.54083 195.633 6.58561 196.176 6.09821Z" fill="#1D1D1B"/>
<path d="M246.768 9.07422H244.586V17.6427C244.586 17.8775 244.6 18.0215 244.603 18.0676C244.674 19.208 245.608 20.1108 246.768 20.1108V9.07422Z" fill="#1D1D1B"/>
<path d="M246.999 5.11563C246.999 5.84516 246.407 6.43633 245.677 6.43633C244.947 6.43633 244.355 5.84516 244.355 5.11563C244.355 4.38609 244.947 3.79492 245.677 3.79492C246.407 3.79492 246.999 4.38609 246.999 5.11563Z" fill="#1D1D1B"/>
<path d="M240.752 1L238.57 1V17.6423C238.57 17.8771 238.584 18.021 238.587 18.0671C238.658 19.2075 239.593 20.1104 240.752 20.1104V1Z" fill="#1D1D1B"/>
<path d="M232.789 15.509C232.789 17.7773 232.686 19.861 229.764 19.861C226.842 19.861 226.738 17.7759 226.738 15.509V13.4769C226.738 11.2087 226.842 9.1249 229.764 9.1249C232.686 9.1249 232.789 11.2101 232.789 13.4769V15.509ZM235.293 14.493C235.293 11.4966 233.128 8.70703 229.764 8.70703C226.4 8.70703 224.234 11.4952 224.234 14.493C224.234 17.4908 226.398 20.2789 229.764 20.2789C233.129 20.2789 235.293 17.4894 235.293 14.493Z" fill="#1D1D1B"/>
<path d="M209.821 17.3227H209.421C209.421 19.4764 207.876 19.3981 205.763 19.3981H202.297L209.902 9.04492H200.061V11.5452H200.472C200.457 9.30068 202.5 9.46419 204.018 9.45581H206.972L199.312 19.8104H209.82V17.3227H209.821Z" fill="#1D1D1B"/>
<path d="M222.47 17.3227H222.07C222.07 19.4764 220.524 19.3981 218.412 19.3981H214.946L222.551 9.04492H212.709V11.5452H213.12C213.105 9.30068 215.149 9.46419 216.666 9.45581H219.62L211.961 19.8104H222.468V17.3227H222.47Z" fill="#1D1D1B"/>
<path d="M201.398 27.1268C196.592 26.6698 194.494 23.816 193.042 21.7769C190.466 18.16 187.418 12.8967 186.447 11.3399C191.332 9.48388 191.336 3.19342 185.885 1.94819C185.272 1.80843 184.274 1.74414 183.521 1.74414L176 1.74414V2.18857C176 2.18857 176.105 2.18857 176.497 2.18857C176.541 2.18857 176.708 2.19276 176.75 2.19556C176.885 2.20534 176.996 2.21931 177.104 2.23888C177.42 2.30037 177.655 2.42476 177.806 2.53377C178.407 3.04528 178.472 3.6672 178.486 4.6455V19.8105H181.119V11.8542H183.418C183.418 11.8542 183.425 11.8542 183.429 11.8542C185.2 14.5515 188.337 19.5086 192.249 23.4875C194.108 25.3784 196.588 27.5531 201.686 27.5628C202.299 27.5628 203.508 27.5754 203.508 27.5754L203.51 27.1785C203.51 27.1785 202.021 27.1841 201.397 27.124L201.398 27.1268ZM181.119 11.3371V5.48544C181.119 4.72935 181.105 4.09765 181.178 3.59592C181.296 2.79372 181.725 2.169 182.875 2.169C186.542 2.169 187.239 5.02144 187.239 7.08425C187.239 10.0778 185.457 11.3357 182.409 11.3357H181.118L181.119 11.3371Z" fill="#1D1D1B"/>
</g>
<g clip-path="url(#clip2_28469_148549)">
<mask id="mask0_28469_148549" style="mask-type:luminance" maskUnits="userSpaceOnUse" x="279" y="0" width="102" height="38">
<path d="M381 0L279 0V38L381 38V0Z" fill="white"/>
</mask>
<g mask="url(#mask0_28469_148549)">
<path d="M305.561 0.705078L279.656 0.705078V2.20424H281.096C285.573 2.20424 289.639 3.96576 292.651 6.83852L305.561 6.83852V0.705078Z" fill="#259786"/>
<path d="M305.563 6.83789L292.652 6.83789C294.435 8.53756 295.846 10.6289 296.754 12.9713H305.563V6.83789Z" fill="#71BFD7"/>
<path d="M305.563 12.9745H296.754C297.49 14.8747 297.896 16.9436 297.896 19.1061H305.565V12.9727L305.563 12.9745Z" fill="#994A8B"/>
<path d="M305.561 19.1074H297.892C297.892 21.2718 297.488 23.3407 296.75 25.2409H305.561V19.1074Z" fill="#E72113"/>
<path d="M305.561 25.2402H296.749C295.841 27.5845 294.429 29.674 292.645 31.3737H305.561V25.2402Z" fill="#EA7C26"/>
<path d="M305.561 37.5084V31.375H292.645C289.635 34.244 285.57 36.0055 281.094 36.0055H279.656V37.5084H305.561Z" fill="#F3B803"/>
<path d="M287.204 19.1062C287.204 15.8436 284.677 13.177 281.485 12.9746H279.605V19.1081H287.206" fill="#994A8B"/>
<path d="M287.204 19.1074H279.605V25.2409H281.436C284.651 25.0647 287.206 22.3868 287.206 19.1074" fill="#E72113"/>
<path d="M313.145 23.2377V14.9492H316.035C317.369 14.9492 318.361 15.2978 319.011 15.993C319.661 16.6882 319.987 17.7208 319.987 19.0869C319.987 20.453 319.661 21.4874 319.011 22.1864C318.361 22.8873 317.369 23.2358 316.035 23.2358H313.145V23.2377ZM314.502 22.0815H315.897C316.819 22.0815 317.499 21.8435 317.935 21.3675C318.371 20.8915 318.589 20.1307 318.589 19.0869C318.589 18.0431 318.371 17.2935 317.935 16.8119C317.499 16.3322 316.819 16.0905 315.897 16.0905H314.502V22.0796V22.0815Z" fill="#1D1D1B"/>
<path d="M321.371 23.2377V14.9492H326.769V16.1036H322.742V18.5022H326.251V19.6697H322.731V22.0815H326.769V23.2377H321.371Z" fill="#1D1D1B"/>
<path d="M327.473 23.2377L330.684 14.9492H332.129L335.254 23.2377H333.822L331.067 15.6201L331.587 15.5695L328.832 23.2377H327.473ZM329.054 20.989L329.449 19.8702H333.364L333.475 20.989H329.054Z" fill="#1D1D1B"/>
<path d="M338.586 23.3742C338.174 23.3742 337.811 23.3517 337.498 23.3049C337.185 23.2599 336.9 23.1868 336.645 23.0875C336.39 22.9882 336.127 22.8682 335.855 22.7277V21.3616C336.176 21.6183 336.565 21.8301 337.023 21.995C337.48 22.1599 337.973 22.2442 338.498 22.2442C339.024 22.2442 339.389 22.1393 339.64 21.9275C339.891 21.7157 340.016 21.4234 340.016 21.0524C340.016 20.7619 339.923 20.5277 339.739 20.3496C339.552 20.1716 339.308 20.0198 339.003 19.8961C338.698 19.7725 338.374 19.6469 338.027 19.5232C337.763 19.4239 337.504 19.319 337.249 19.2065C336.993 19.0941 336.762 18.9535 336.558 18.7849C336.353 18.6144 336.187 18.397 336.064 18.1327C335.941 17.8685 335.88 17.5406 335.88 17.1508C335.88 16.8772 335.934 16.5999 336.04 16.3188C336.146 16.0377 336.31 15.7828 336.528 15.5542C336.746 15.3256 337.034 15.1438 337.392 15.007C337.75 14.8702 338.18 14.8027 338.683 14.8027C339.012 14.8027 339.297 14.8233 339.541 14.8646C339.783 14.9058 340.014 14.9695 340.232 15.0576C340.45 15.1438 340.687 15.2506 340.942 15.3743V16.716C340.735 16.583 340.528 16.4593 340.318 16.3431C340.107 16.2269 339.88 16.1314 339.633 16.0564C339.385 15.9815 339.109 15.9402 338.806 15.9327C338.459 15.9252 338.176 15.9665 337.953 16.0564C337.731 16.1482 337.561 16.2757 337.446 16.4424C337.331 16.6073 337.273 16.7985 337.273 17.014C337.273 17.3045 337.345 17.5331 337.489 17.7036C337.632 17.8741 337.837 18.0147 338.1 18.1271C338.362 18.2396 338.668 18.3483 339.014 18.4569C339.318 18.5563 339.616 18.6687 339.903 18.7924C340.191 18.9161 340.446 19.0678 340.668 19.2459C340.89 19.4239 341.07 19.645 341.204 19.9111C341.34 20.1754 341.407 20.5033 341.407 20.8931C341.407 21.3241 341.311 21.727 341.117 22.1037C340.923 22.4803 340.618 22.7876 340.202 23.0238C339.787 23.2599 339.245 23.3779 338.578 23.3779" fill="#1D1D1B"/>
<path d="M346.231 23.3613C344.939 23.3613 343.963 23.009 343.304 22.3044C342.644 21.5998 342.316 20.5279 342.316 19.085C342.316 17.642 342.64 16.602 343.292 15.8842C343.942 15.1684 344.922 14.8086 346.231 14.8086C346.667 14.8086 347.101 14.8629 347.535 14.9698C347.967 15.0784 348.384 15.2265 348.788 15.4176V16.6469C348.384 16.4071 347.984 16.2309 347.585 16.1185C347.185 16.0061 346.792 15.9517 346.406 15.9517C345.805 15.9517 345.306 16.0585 344.905 16.274C344.507 16.4895 344.209 16.825 344.017 17.2803C343.823 17.7357 343.726 18.341 343.726 19.0943C343.726 19.8477 343.825 20.4305 344.022 20.8896C344.22 21.3487 344.518 21.6841 344.918 21.8959C345.317 22.1076 345.827 22.2126 346.444 22.2126C346.814 22.2126 347.198 22.1564 347.593 22.0439C347.988 21.9315 348.388 21.761 348.79 21.5286V22.7579C348.543 22.8816 348.276 22.9903 347.988 23.0802C347.699 23.172 347.407 23.2395 347.11 23.2845C346.814 23.3295 346.522 23.3519 346.233 23.3519" fill="#1D1D1B"/>
<path d="M353.519 23.41C352.4 23.41 351.543 23.1214 350.951 22.5461C350.359 21.9708 350.062 21.1144 350.062 19.9807V14.9473H351.457V19.9676C351.457 20.7471 351.627 21.3243 351.964 21.701C352.301 22.0777 352.808 22.2669 353.484 22.2669C354.16 22.2669 354.646 22.0777 354.996 21.701C355.346 21.3243 355.521 20.7453 355.521 19.9676V14.9473H356.831V19.9807C356.831 20.734 356.697 21.3693 356.428 21.8828C356.16 22.3962 355.78 22.7804 355.287 23.0315C354.793 23.2845 354.205 23.41 353.521 23.41" fill="#1D1D1B"/>
<path d="M361.954 23.3746C361.138 23.3746 360.446 23.2172 359.874 22.9024C359.302 22.5875 358.866 22.1153 358.57 21.4856C358.274 20.856 358.125 20.0614 358.125 19.1001C358.125 17.6834 358.453 16.6152 359.107 15.8938C359.76 15.1723 360.71 14.8125 361.954 14.8125C362.777 14.8125 363.474 14.9699 364.042 15.2847C364.61 15.5996 365.044 16.0737 365.346 16.7071C365.646 17.3405 365.797 18.1388 365.797 19.0982C365.797 20.5074 365.469 21.5718 364.815 22.2914C364.159 23.0129 363.208 23.3727 361.956 23.3727M361.956 22.1921C362.507 22.1921 362.962 22.0872 363.321 21.8754C363.679 21.6637 363.947 21.3301 364.124 20.8747C364.301 20.4194 364.388 19.8234 364.388 19.0851C364.388 18.3468 364.299 17.7658 364.124 17.3142C363.947 16.8626 363.679 16.5309 363.321 16.3192C362.964 16.1074 362.507 16.0025 361.956 16.0025C361.405 16.0025 360.96 16.1111 360.598 16.3267C360.235 16.5422 359.967 16.8757 359.79 17.3273C359.613 17.779 359.526 18.3693 359.526 19.0982C359.526 19.8272 359.615 20.4194 359.79 20.8747C359.967 21.3301 360.237 21.6637 360.598 21.8754C360.96 22.0872 361.414 22.1921 361.956 22.1921Z" fill="#1D1D1B"/>
<path d="M367.082 23.2377V14.9492H368.453V22.0684H372.381V23.2377H367.082Z" fill="#1D1D1B"/>
<path d="M372.549 23.2377L375.76 14.9492H377.205L380.33 23.2377H378.898L376.143 15.6201L376.661 15.5695L373.906 23.2377H372.547H372.549ZM374.13 20.989L374.525 19.8702H378.44L378.551 20.989H374.13Z" fill="#1D1D1B"/>
</g>
</g>
<defs>
<clipPath id="clip0_28469_148549">
<rect width="144" height="28" fill="white" transform="translate(0 5)"/>
</clipPath>
<clipPath id="clip1_28469_148549">
<rect width="71" height="36" fill="white" transform="translate(176 1)"/>
</clipPath>
<clipPath id="clip2_28469_148549">
<rect width="102" height="38" fill="white" transform="translate(279)"/>
</clipPath>
</defs>
</svg>
